<svg width="215" height="120" viewBox="0 0 215 120" fill="none" xmlns="http://www.w3.org/2000/svg">
<path d="M11.9957 107.077H185.472V102.462H188.24V99.6923H191.009V36.9231H199.313V64.6154H203.004V70.1538H205.773V91.3846H203.004V100.615H199.313V104.308H196.545V109.846H193.777V112.615H191.009V116.308H188.24V120H11.9957V116.308H2.76824V112.615H0V36.9231H11.9957V107.077Z" fill="black" fill-opacity="0.5"/>
<path d="M56.2876 10.1538V12.9231H62.7468V10.1538H140.258V31.3846H143.026V27.6923H145.794V22.1538H149.485V15.6923H152.253V12.9231H155.021V10.1538H181.781V12.9231H184.549V18.4615H188.24V22.1538H191.009V24.9231H193.777V104.308H191.009V107.077H9.22748V64.6154H11.9957V58.1538H9.22748V10.1538H56.2876Z" fill="#EAC85D"/>
<path d="M29.5279 79.3846H35.9871V85.8462H33.2189V88.6154H29.5279V91.3846H26.7597V76.6154H29.5279V79.3846Z" fill="black"/>
<path d="M80.279 88.6154H74.7425V83.0769H77.5107V79.3846H80.279V88.6154Z" fill="black"/>
<path d="M172.554 39.6923H164.249V36.9231H167.017V34.1538H172.554V39.6923Z" fill="black"/>
<path fill-rule="evenodd" clip-rule="evenodd" d="M17.5322 3.69231H50.7511V10.1538H17.5322V12.9231H14.764V15.6923H11.9957V18.4615H9.22748V48.9231H11.9957V52.6154H14.764V55.3846H17.5322V58.1538H47.9828V55.3846H50.7511V52.6154H53.5193V48.9231H56.2876V36.9231H53.5193V34.1538H38.7554V39.6923H35.9871V36.9231H33.2189V34.1538H35.9871V27.6923H38.7554V31.3846H56.2876V15.6923H53.5193V12.9231H50.7511V10.1538H56.2876V12.9231H62.7468V10.1538H65.515V6.46154H68.2833V3.69231H83.0472V6.46154H86.7382V10.1538H95.0429V6.46154H101.502V3.69231H131.03V6.46154H137.489V10.1538H140.258V31.3846H143.026V27.6923H145.794V22.1538H149.485V15.6923H152.253V12.9231H155.021V10.1538H157.79V6.46154H179.013V10.1538H181.781V12.9231H184.549V18.4615H188.24V22.1538H191.009V24.9231H193.777V31.3846H196.545V60.9231H193.777V67.3846H196.545V70.1538H199.313V83.0769H203.004V85.8462H196.545V91.3846H199.313V97.8462H196.545V100.615H193.777V104.308H191.009V109.846H188.24V113.538H155.021V109.846H152.253V107.077H145.794V109.846H140.258V113.538H128.262V109.846H125.494V107.077H121.803V109.846H119.034V113.538H107.039V109.846H101.502V107.077H98.7339V109.846H92.2747V113.538H62.7468V109.846H59.9785V107.077H50.7511V109.846H47.9828V113.538H14.764V109.846H11.9957V107.077H9.22748V104.308H2.76825V70.1538H5.53649V67.3846H9.22748V64.6154H11.9957V58.1538H9.22748V55.3846H5.53649V52.6154H2.76825V15.6923H5.53649V12.9231H9.22748V10.1538H11.9957V6.46154H14.764V3.69231H11.9957V0H17.5322V3.69231ZM17.5322 64.6154H14.764V67.3846H11.9957V70.1538H9.22748V100.615H11.9957V104.308H14.764V107.077H44.2919V104.308H47.9828V100.615H50.7511V97.8462H53.5193V70.1538H50.7511V67.3846H47.9828V64.6154H44.2919V60.9231H17.5322V64.6154ZM68.2833 64.6154H65.515V67.3846H62.7468V70.1538H59.9785V73.8462H56.2876V97.8462H59.9785V100.615H62.7468V104.308H65.515V107.077H89.5064V104.308H92.2747V100.615H95.0429V97.8462H98.7339V73.8462H95.0429V70.1538H92.2747V67.3846H89.5064V64.6154H86.7382V60.9231H68.2833V64.6154ZM107.039 64.6154H104.27V104.308H107.039V107.077H119.034V104.308H121.803V95.0769H125.494V97.8462H128.262V104.308H131.03V107.077H140.258V104.308H143.026V100.615H145.794V67.3846H143.026V64.6154H140.258V60.9231H128.262V70.1538H121.803V67.3846H119.034V64.6154H116.266V60.9231H107.039V64.6154ZM157.79 64.6154H155.021V67.3846H152.253V70.1538H149.485V97.8462H152.253V100.615H155.021V107.077H184.549V104.308H188.24V97.8462H191.009V95.0769H193.777V85.8462H172.554V88.6154H167.017V85.8462H169.785V79.3846H172.554V83.0769H193.777V73.8462H191.009V70.1538H188.24V67.3846H184.549V64.6154H181.781V60.9231H157.79V64.6154ZM68.2833 12.9231H65.515V15.6923H62.7468V52.6154H65.515V55.3846H68.2833V58.1538H80.279V55.3846H83.0472V52.6154H86.7382V15.6923H83.0472V12.9231H80.279V10.1538H68.2833V12.9231ZM101.502 12.9231H95.0429V15.6923H92.2747V52.6154H98.7339V55.3846H104.27V58.1538H128.262V55.3846H131.03V52.6154H133.798V48.9231H137.489V46.1538H140.258V36.9231H137.489V34.1538H121.803V39.6923H119.034V36.9231H116.266V31.3846H119.034V27.6923H121.803V31.3846H137.489V12.9231H133.798V10.1538H101.502V12.9231ZM160.558 15.6923H157.79V18.4615H155.021V24.9231H152.253V27.6923H149.485V34.1538H145.794V55.3846H149.485V58.1538H167.017V55.3846H172.554V58.1538H191.009V55.3846H193.777V34.1538H191.009V31.3846H188.24V24.9231H184.549V22.1538H181.781V18.4615H179.013V15.6923H176.245V10.1538H160.558V15.6923Z" fill="black"/>
<path d="M205.773 10.1538H211.309V3.69231H215V18.4615H211.309V12.9231H205.773V18.4615H203.004V6.46154H199.313V18.4615H196.545V6.46154H191.009V3.69231H205.773V10.1538Z" fill="black"/>
<path d="M17.5322 70.1538H14.764V73.8462H11.9957V97.8462H14.764V100.615H17.5322V104.308H44.2919V107.077H14.764V104.308H11.9957V100.615H9.22748V70.1538H11.9957V67.3846H14.764V64.6154H17.5322V70.1538Z" fill="#FFBD26"/>
<path d="M59.9786 95.0769H62.7468V97.8462H65.515V100.615H68.2833V104.308H89.5065V107.077H65.515V104.308H62.7468V100.615H59.9786V97.8462H56.2876V73.8462H59.9786V95.0769Z" fill="#FFBD26"/>
<path d="M107.039 95.0769H110.73V104.308H119.034V107.077H107.039V104.308H104.27V64.6154H107.039V95.0769Z" fill="#FFBD26"/>
<path d="M140.258 107.077H131.03V104.308H140.258V107.077Z" fill="#FFBD26"/>
<path d="M157.79 104.308H184.549V107.077H155.021V100.615H157.79V104.308Z" fill="#FFBD26"/>
<path d="M92.2747 104.308H89.5065V100.615H92.2747V104.308Z" fill="#FFBD26"/>
<path d="M121.803 91.3846H128.262V95.0769H131.03V104.308H128.262V97.8462H125.494V95.0769H121.803V104.308H119.034V88.6154H121.803V91.3846Z" fill="#FFBD26"/>
<path d="M143.026 104.308H140.258V100.615H143.026V104.308Z" fill="#FFBD26"/>
<path d="M188.24 104.308H184.549V97.8462H188.24V104.308Z" fill="#FFBD26"/>
<path d="M95.0429 100.615H92.2747V97.8462H95.0429V100.615Z" fill="#FFBD26"/>
<path d="M145.794 100.615H143.026V97.8462H145.794V100.615Z" fill="#FFBD26"/>
<path d="M155.021 100.615H152.253V97.8462H155.021V100.615Z" fill="#FFBD26"/>
<path d="M98.7339 97.8462H95.0429V95.0769H98.7339V97.8462Z" fill="#FFBD26"/>
<path d="M152.253 97.8462H149.485V70.1538H152.253V97.8462Z" fill="#FFBD26"/>
<path d="M191.009 97.8462H188.24V95.0769H191.009V97.8462Z" fill="#FFBD26"/>
<path d="M193.777 95.0769H191.009V88.6154H193.777V95.0769Z" fill="#FFBD26"/>
<path d="M176.245 79.3846H193.777V83.0769H172.554V79.3846H169.785V85.8462H167.017V88.6154H164.249V83.0769H167.017V76.6154H176.245V79.3846Z" fill="#FFBD26"/>
<path d="M21.2232 64.6154H17.5322V60.9231H21.2232V64.6154Z" fill="#FFBD26"/>
<path d="M21.2232 55.3846H41.5236V52.6154H50.7511V55.3846H47.9828V58.1538H17.5322V55.3846H14.764V52.6154H21.2232V55.3846Z" fill="#FFBD26"/>
<path d="M80.279 58.1538H68.2833V55.3846H80.279V58.1538Z" fill="#FFBD26"/>
<path d="M95.0429 46.1538H98.7339V48.9231H101.502V52.6154H107.039V55.3846H128.262V58.1538H104.27V55.3846H98.7339V52.6154H92.2747V15.6923H95.0429V46.1538Z" fill="#FFBD26"/>
<path d="M167.017 58.1538H149.485V55.3846H167.017V58.1538Z" fill="#FFBD26"/>
<path d="M193.777 55.3846H191.009V58.1538H172.554V55.3846H167.017V52.6154H176.245V55.3846H188.24V52.6154H191.009V36.9231H193.777V55.3846Z" fill="#FFBD26"/>
<path d="M65.515 48.9231H68.2833V55.3846H65.515V52.6154H62.7468V15.6923H65.515V48.9231Z" fill="#FFBD26"/>
<path d="M86.7382 52.6154H83.0472V55.3846H80.279V48.9231H83.0472V15.6923H86.7382V52.6154Z" fill="#FFBD26"/>
<path d="M131.03 55.3846H128.262V52.6154H131.03V55.3846Z" fill="#FFBD26"/>
<path d="M155.021 31.3846H152.253V36.9231H149.485V55.3846H145.794V34.1538H149.485V27.6923H152.253V24.9231H155.021V31.3846Z" fill="#FFBD26"/>
<path d="M11.9957 46.1538H14.764V52.6154H11.9957V48.9231H9.22748V18.4615H11.9957V46.1538Z" fill="#FFBD26"/>
<path d="M53.5193 52.6154H50.7511V48.9231H53.5193V52.6154Z" fill="#FFBD26"/>
<path d="M133.798 52.6154H131.03V48.9231H133.798V52.6154Z" fill="#FFBD26"/>
<path d="M56.2876 48.9231H53.5193V36.9231H56.2876V48.9231Z" fill="#FFBD26"/>
<path d="M140.258 46.1538H137.489V48.9231H133.798V43.3846H137.489V36.9231H140.258V46.1538Z" fill="#FFBD26"/>
<path d="M121.803 43.3846H119.034V39.6923H121.803V43.3846Z" fill="#FFBD26"/>
<path d="M176.245 43.3846H160.558V36.9231H164.249V39.6923H172.554V34.1538H167.017V31.3846H176.245V43.3846Z" fill="#FFBD26"/>
<path d="M35.9871 39.6923H33.2189V36.9231H35.9871V39.6923Z" fill="#FFBD26"/>
<path d="M119.034 39.6923H116.266V36.9231H119.034V39.6923Z" fill="#FFBD26"/>
<path d="M33.2189 31.3846H35.9871V34.1538H33.2189V36.9231H29.5279V24.9231H33.2189V31.3846Z" fill="#FFBD26"/>
<path d="M116.266 36.9231H113.498V27.6923H116.266V36.9231Z" fill="#FFBD26"/>
<path d="M167.017 36.9231H164.249V34.1538H167.017V36.9231Z" fill="#FFBD26"/>
<path d="M56.2876 31.3846H38.7554V27.6923H53.5193V15.6923H56.2876V31.3846Z" fill="#FFBD26"/>
<path d="M133.798 12.9231H137.489V31.3846H121.803V27.6923H133.798V15.6923H131.03V12.9231H110.73V10.1538H133.798V12.9231Z" fill="#FFBD26"/>
<path d="M157.79 24.9231H155.021V18.4615H157.79V24.9231Z" fill="#FFBD26"/>
<path d="M160.558 18.4615H157.79V15.6923H160.558V18.4615Z" fill="#FFBD26"/>
<path d="M68.2833 15.6923H65.515V12.9231H68.2833V15.6923Z" fill="#FFBD26"/>
<path d="M83.0472 15.6923H80.279V12.9231H83.0472V15.6923Z" fill="#FFBD26"/>
<path d="M167.017 12.9231H164.249V15.6923H160.558V10.1538H167.017V12.9231Z" fill="#FFBD26"/>
<path d="M80.279 12.9231H68.2833V10.1538H80.279V12.9231Z" fill="#FFBD26"/>
<path d="M47.9828 76.6154H44.2918V73.8462H47.9828V76.6154Z" fill="#FFF3D6"/>
<path d="M92.2747 76.6154H89.5064V73.8462H92.2747V76.6154Z" fill="#FFF3D6"/>
<path d="M44.2918 73.8462H41.5236V70.1538H44.2918V73.8462Z" fill="#FFF3D6"/>
<path d="M89.5064 73.8462H86.7382V70.1538H89.5064V73.8462Z" fill="#FFF3D6"/>
<path d="M119.034 73.8462H116.266V70.1538H119.034V73.8462Z" fill="#FFF3D6"/>
<path d="M140.258 73.8462H137.489V67.3846H140.258V73.8462Z" fill="#FFF3D6"/>
<path d="M157.79 73.8462H155.021V70.1538H157.79V73.8462Z" fill="#FFF3D6"/>
<path d="M86.7382 70.1538H71.9742V67.3846H86.7382V70.1538Z" fill="#FFF3D6"/>
<path d="M116.266 70.1538H113.498V67.3846H116.266V70.1538Z" fill="#FFF3D6"/>
<path d="M164.249 70.1538H157.79V67.3846H164.249V70.1538Z" fill="#FFF3D6"/>
<path d="M38.7554 67.3846H21.2232V64.6154H38.7554V67.3846Z" fill="#FFF3D6"/>
<path d="M113.498 67.3846H110.73V64.6154H113.498V67.3846Z" fill="#FFF3D6"/>
<path d="M137.489 67.3846H133.798V64.6154H137.489V67.3846Z" fill="#FFF3D6"/>
<path d="M179.013 67.3846H164.249V64.6154H179.013V67.3846Z" fill="#FFF3D6"/>
<path d="M80.279 39.6923H77.5107V18.4615H80.279V39.6923Z" fill="#FFF3D6"/>
<path d="M181.781 24.9231H179.013V22.1538H181.781V24.9231Z" fill="#FFF3D6"/>
<path d="M77.5107 18.4615H74.7425V15.6923H77.5107V18.4615Z" fill="#FFF3D6"/>
<path d="M107.039 18.4615H101.502V15.6923H107.039V18.4615Z" fill="#FFF3D6"/>
<path d="M38.7554 15.6923H21.2232V12.9231H38.7554V15.6923Z" fill="#FFF3D6"/>
<path d="M47.9828 15.6923H44.2918V12.9231H47.9828V15.6923Z" fill="#FFF3D6"/>
<path d="M125.494 15.6923H107.039V12.9231H125.494V15.6923Z" fill="#FFF3D6"/>
<path d="M172.554 15.6923H164.249V12.9231H172.554V15.6923Z" fill="#FFF3D6"/>
</svg>
